<?xml version="1.0" standalone="no"?>
<!DOCTYPE svg PUBLIC "-//W3C//DTD SVG 20010904//EN"
 "http://www.w3.org/TR/2001/REC-SVG-20010904/DTD/svg10.dtd">
<svg version="1.0" xmlns="http://www.w3.org/2000/svg"
 width="266.000000pt" height="266.000000pt" viewBox="0 0 266.000000 266.000000"
 preserveAspectRatio="xMidYMid meet">
<metadata>
Created by potrace 1.11, written by Peter Selinger 2001-2013
</metadata>
<g transform="translate(0.000000,266.000000) scale(0.100000,-0.100000)"
fill="#000000" stroke="none">
<path d="M30 1680 l0 -950 950 0 950 0 0 950 0 950 -950 0 -950 0 0 -950z
m1830 0 l0 -880 -880 0 -880 0 0 880 0 880 880 0 880 0 0 -880z"/>
<path d="M1970 2595 l0 -35 140 0 140 0 0 35 0 35 -140 0 -140 0 0 -35z"/>
<path d="M2390 2595 l0 -35 120 0 120 0 0 35 0 35 -120 0 -120 0 0 -35z"/>
<path d="M2560 2310 l0 -140 35 0 35 0 0 140 0 140 -35 0 -35 0 0 -140z"/>
<path d="M2560 1890 l0 -140 35 0 35 0 0 140 0 140 -35 0 -35 0 0 -140z"/>
<path d="M2560 1470 l0 -140 35 0 35 0 0 140 0 140 -35 0 -35 0 0 -140z"/>
<path d="M2560 1050 l0 -140 35 0 35 0 0 140 0 140 -35 0 -35 0 0 -140z"/>
<path d="M2560 630 l0 -140 35 0 35 0 0 140 0 140 -35 0 -35 0 0 -140z"/>
<path d="M30 510 l0 -140 35 0 35 0 0 140 0 140 -35 0 -35 0 0 -140z"/>
<path d="M2560 225 l0 -125 -105 0 -105 0 0 -35 0 -35 140 0 140 0 0 160 0
160 -35 0 -35 0 0 -125z"/>
<path d="M30 130 l0 -100 41 0 42 0 -7 52 c-3 29 -6 74 -6 101 l0 47 -35 0
-35 0 0 -100z"/>
<path d="M250 65 l0 -35 140 0 140 0 0 35 0 35 -140 0 -140 0 0 -35z"/>
<path d="M670 65 l0 -35 140 0 140 0 0 35 0 35 -140 0 -140 0 0 -35z"/>
<path d="M1090 65 l0 -35 140 0 140 0 0 35 0 35 -140 0 -140 0 0 -35z"/>
<path d="M1510 65 l0 -35 140 0 140 0 0 35 0 35 -140 0 -140 0 0 -35z"/>
<path d="M1930 65 l0 -35 140 0 140 0 0 35 0 35 -140 0 -140 0 0 -35z"/>
</g>
</svg>
